# xmcd CD database file
#
# Track frame offsets:
#	183
#	28608
#	71370
#	98733
#	129258
#	160348
#	179283
#	199935
#	231108
#
# Disc length: 3458 seconds
#
# Revision: 0
# Processed by: cddbd v1.5.1PL0 Copyright (c) Steve Scherf et al.
# Submitted via: CDex 1.51
#
DISCID=6f0d8009
DTITLE=Dave Liebman - Besame Mucho and other Latin Jazz Standards
DYEAR=1994
DGENRE=Jazz
TTITLE0=Besame Mucho
TTITLE1=Poinciana
TTITLE2=Lazy Afternoon
TTITLE3=Caravan
TTITLE4=Andalucia (The Breeze And I)
TTITLE5=Speak Low
TTITLE6=The Island
TTITLE7=How Insensitive
TTITLE8=Night in Tunisia
EXTD=YEAR: 1994
EXTT0=
EXTT1=
EXTT2=
EXTT3=
EXTT4=
EXTT5=
EXTT6=
EXTT7=
EXTT8=
PLAYORDER=
